<?xml version="1.0" standalone="no"?><!DOCTYPE svg PUBLIC "-//W3C//DTD SVG 1.1//EN" "http://www.w3.org/Graphics/SVG/1.1/DTD/svg11.dtd"><svg t="1766948912593" class="icon" viewBox="0 0 1024 1024" version="1.1" xmlns="http://www.w3.org/2000/svg" p-id="5866" xmlns:xlink="http://www.w3.org/1999/xlink" width="200" height="200"><style>path{fill: #000;}@media(prefers-color-scheme :dark){path{fill: #fff;}}</style><path d="M547.652 326h-11.6V186a20 20 0 0 0-37.222-10.166l-28.024 47.47c-5.616 9.512-2.458 21.774 7.054 27.39a19.972 19.972 0 0 0 18.192 1.098V326h-11.598c-11.044 0-20 8.954-20 20s8.956 20 20 20h63.198c11.044 0 20-8.954 20-20s-8.956-20-20-20zM314.11 818h-43.338c24.86-25.596 51.554-61.526 51.554-97.782 0-37.214-25.004-62.218-62.216-62.218-34.306 0-62.218 27.912-62.218 62.218 0 11.046 8.956 20 20 20s20-8.954 20-20c0-12.25 9.966-22.218 22.218-22.218 19.914 0 22.216 12.68 22.216 22.218 0 37.062-56.502 87.08-76.284 101.668A20.004 20.004 0 0 0 217.89 858h96.218c11.044 0 20-8.954 20-20s-8.954-20-19.998-20zM815.248 718.268c0.002-33.026-26.866-59.894-59.888-59.894h-34.61c-11.044 0-20 8.954-20 20s8.956 20 20 20h34.61c10.966 0 19.89 8.922 19.89 19.892 0 9.972-7.382 18.228-16.962 19.652a61.784 61.784 0 0 0-2.928-0.074h-34.61c-11.044 0-20 8.954-20 20s8.956 20 20 20h13.922a19.974 19.974 0 0 0 3.428 0.314h17.258c0.982 0 1.958-0.028 2.928-0.074 9.58 1.424 16.962 9.68 16.962 19.652 0 10.968-8.924 19.892-19.89 19.892h-34.61c-11.044 0-20 8.954-20 20s8.956 20 20 20h34.61c33.024 0 59.89-26.868 59.89-59.892 0-15.236-5.728-29.154-15.132-39.734 9.404-10.582 15.132-24.498 15.132-39.734z" p-id="5867"></path><path d="M924 492h-166.054c12.584-16.726 20.054-37.506 20.054-60v-89.334c0-11.046-8.956-20-20-20s-20 8.954-20 20V432c0 33.084-26.916 60-60 60H346c-33.084 0-60-26.916-60-60V100c0-33.084 26.916-60 60-60h332c33.084 0 60 26.916 60 60v76c0 11.046 8.956 20 20 20s20-8.954 20-20V100c0-55.14-44.86-100-100-100H346c-55.14 0-100 44.86-100 100v332c0 22.494 7.47 43.274 20.054 60H100c-55.14 0-100 44.86-100 100v332c0 55.14 44.86 100 100 100h332c32.678 0 61.74-15.756 80-40.07C530.26 1008.244 559.322 1024 592 1024h332c55.14 0 100-44.86 100-100V592c0-55.14-44.86-100-100-100zM492 924c0 33.084-26.916 60-60 60H100c-33.084 0-60-26.916-60-60V592c0-33.084 26.916-60 60-60h332c33.084 0 60 26.916 60 60v332z m20-391.93l-0.054-0.07h0.108l-0.054 0.07zM984 924c0 33.084-26.916 60-60 60H592c-33.084 0-60-26.916-60-60V592c0-33.084 26.916-60 60-60h332c33.084 0 60 26.916 60 60v332z" p-id="5868"></path><path d="M772.138 251.86C768.42 248.14 763.26 246 758 246s-10.42 2.14-14.14 5.86c-3.72 3.72-5.86 8.88-5.86 14.14s2.138 10.42 5.86 14.14c3.722 3.72 8.88 5.86 14.14 5.86s10.42-2.14 14.138-5.86c3.72-3.72 5.862-8.88 5.862-14.14s-2.14-10.42-5.862-14.14z" p-id="5869"></path></svg>